<svg width="32.000000" height="32.000000" viewBox="0 0 32 32" fill="none" xmlns="http://www.w3.org/2000/svg" xmlns:xlink="http://www.w3.org/1999/xlink">
	<desc>
			Created with Pixso.
	</desc>
	<defs>
		<clipPath id="clip9_785">
			<rect id="32icon-grid" width="32.000000" height="32.000000" fill="white" fill-opacity="0"/>
		</clipPath>
		<clipPath id="clip9_803">
			<rect id="Color=On" width="32.000000" height="32.000000" fill="white" fill-opacity="0"/>
		</clipPath>
		<linearGradient x1="16.000000" y1="2.000000" x2="16.000000" y2="30.000000" id="paint_linear_9_786_0" gradientUnits="userSpaceOnUse">
			<stop stop-color="#EFC977"/>
			<stop offset="1.000000" stop-color="#E07256"/>
		</linearGradient>
		<linearGradient x1="16.000000" y1="2.000000" x2="16.000000" y2="30.000000" id="paint_linear_9_800_0" gradientUnits="userSpaceOnUse">
			<stop stop-color="#EFC977"/>
			<stop offset="1.000000" stop-color="#E07256"/>
		</linearGradient>
	</defs>
	<g clip-path="url(#clip9_803)">
		<path id="outline" d="M15 5L15 2L17 2L17 5L15 5ZM20.63 5.97L22.13 3.37L23.86 4.37L22.36 6.97L20.63 5.97ZM16 23C19.86 23 23 19.86 23 16C23 12.13 19.86 9 16 9C12.13 9 9 12.13 9 16C9 19.86 12.13 23 16 23ZM16 25C20.97 25 25 20.97 25 16C25 11.02 20.97 7 16 7C11.02 7 7 11.02 7 16C7 20.97 11.02 25 16 25ZM27 15L30 15L30 17L27 17L27 15ZM27.62 8.13L25.02 9.63L26.02 11.36L28.62 9.86L27.62 8.13ZM8.13 4.37L9.63 6.97L11.36 5.97L9.86 3.37L8.13 4.37ZM5.97 11.36L3.37 9.86L4.37 8.13L6.97 9.63L5.97 11.36ZM15 27L15 30L17 30L17 27L15 27ZM5 15L2 15L2 17L5 17L5 15ZM3.37 22.13L5.97 20.63L6.97 22.36L4.37 23.86L3.37 22.13ZM9.63 25.02L8.13 27.62L9.86 28.62L11.36 26.02L9.63 25.02ZM22.13 28.62L20.63 26.02L22.36 25.02L23.86 27.62L22.13 28.62ZM25.02 22.36L27.62 23.86L28.62 22.13L26.02 20.63L25.02 22.36Z" fill="url(#paint_linear_9_800_0)" fill-opacity="1.000000" fill-rule="evenodd"/>
	</g>
</svg>
