<svg width="24.005981" height="24.006104" viewBox="0 0 24.006 24.0061" fill="none" xmlns="http://www.w3.org/2000/svg" xmlns:xlink="http://www.w3.org/1999/xlink">
	<desc>
			Created with Pixso.
	</desc>
	<defs>
		<linearGradient x1="15.108810" y1="0.411981" x2="8.897154" y2="23.594202" id="paint_linear_9_1784_0" gradientUnits="userSpaceOnUse">
			<stop stop-color="#F5BD52"/>
			<stop offset="1.000000" stop-color="#F5DA79"/>
		</linearGradient>
	</defs>
	<path id="outline" d="M23.59 15.1C24.05 13.39 24.11 11.66 23.84 10.01C23.46 11.2 22.8 12.23 21.95 13.04L21.94 13.05C21.3 13.68 20.55 14.18 19.72 14.53C18.79 14.93 17.78 15.12 16.77 15.09C15.76 15.06 14.77 14.82 13.86 14.38C12.95 13.94 12.14 13.31 11.49 12.53C10.85 11.75 10.38 10.84 10.11 9.87C9.84 8.89 9.78 7.87 9.94 6.87C10.1 5.87 10.47 4.92 11.03 4.08C11.54 3.29 12.22 2.61 13 2.09C13.99 1.39 15.17 0.95 16.4 0.83C15.98 0.67 15.55 0.53 15.1 0.41C8.7 -1.31 2.12 2.49 0.41 8.89C-1.31 15.29 2.49 21.87 8.89 23.59C15.29 25.3 21.87 21.51 23.59 15.1ZM21.04 16.26C19.02 20.56 14.16 22.93 9.41 21.66C4.08 20.23 0.91 14.74 2.34 9.41C3.33 5.73 6.25 3.08 9.72 2.26C9.55 2.47 9.4 2.68 9.25 2.9C8.53 4 8.05 5.24 7.84 6.54C7.63 7.84 7.71 9.16 8.06 10.43C8.4 11.7 9.02 12.88 9.86 13.89C10.7 14.9 11.75 15.72 12.93 16.29C14.11 16.87 15.4 17.18 16.72 17.21C18.03 17.25 19.34 17 20.55 16.49C20.72 16.42 20.88 16.35 21.04 16.26ZM21.86 4.61L21.33 3L20.81 4.61L19.11 4.61L20.49 5.61L19.96 7.22L21.33 6.23L22.71 7.22L22.18 5.61L23.56 4.61L21.86 4.61ZM15.33 3L15.86 4.61L17.56 4.61L16.18 5.61L16.71 7.22L15.33 6.23L13.96 7.22L14.49 5.61L13.11 4.61L14.81 4.61L15.33 3ZM18.86 8.61L18.33 7L17.81 8.61L16.11 8.61L17.49 9.61L16.96 11.22L18.33 10.23L19.71 11.22L19.18 9.61L20.56 8.61L18.86 8.61Z" fill="url(#paint_linear_9_1784_0)" fill-opacity="1.000000" fill-rule="evenodd"/>
</svg>
